<svg width="55" height="55" viewBox="0 0 55 55" fill="none" xmlns="http://www.w3.org/2000/svg">
<rect opacity="0.8" x="0.5" y="0.5" width="54" height="54" stroke="white"/>
<path d="M27.5352 33.4707C28.8945 33.4707 30.0605 32.9902 31.0332 32.0293C32.0059 31.0684 32.4922 29.8965 32.4922 28.5137C32.4922 27.1309 32.0059 25.959 31.0332 24.998C30.0605 24.0371 28.8887 23.5566 27.5176 23.5566C26.1465 23.5566 24.9746 24.0371 24.002 24.998C23.0293 25.959 22.543 27.1309 22.543 28.5137C22.5664 29.5332 22.8652 30.4824 23.4395 31.3613C24.4238 32.7676 25.7891 33.4707 27.5352 33.4707ZM34.0215 34.2441C34.0215 34.4668 33.9395 34.6484 33.7754 34.7891C33.623 34.9297 33.4473 35 33.248 35C33.0605 35 32.8848 34.9297 32.7207 34.7891C32.5684 34.6484 32.4922 34.4668 32.4922 34.2441V32.627C31.3672 33.9863 29.9434 34.7656 28.2207 34.9648C28.0449 36.5938 27.3418 37.9648 26.1113 39.0781C24.8926 40.2031 23.4512 40.7656 21.7871 40.7656C21.5879 40.7656 21.418 40.6836 21.2773 40.5195C21.1367 40.3672 21.0664 40.1855 21.0664 39.9746C21.0664 39.7637 21.1367 39.5879 21.2773 39.4473C21.418 39.3066 21.5996 39.2363 21.8223 39.2363C23.0645 39.2363 24.1426 38.8203 25.0566 37.9883C25.9824 37.1562 26.5273 36.1309 26.6914 34.9121C25.5312 34.8066 24.459 34.3555 23.4746 33.5586C21.834 32.2344 21.0137 30.5527 21.0137 28.5137C21.0137 26.7441 21.6465 25.2266 22.9121 23.9609C24.1895 22.6836 25.7305 22.0449 27.5352 22.0449C29.5391 22.0449 31.1914 22.8359 32.4922 24.418V22.7656C32.4922 22.5312 32.5684 22.3438 32.7207 22.2031C32.8848 22.0625 33.0605 21.9922 33.248 21.9922C33.4473 21.9922 33.623 22.0625 33.7754 22.2031C33.9395 22.3438 34.0215 22.5312 34.0215 22.7656V34.2441Z" fill="white"/>
</svg>
