<svg width="55" height="55" viewBox="0 0 55 55" fill="none" xmlns="http://www.w3.org/2000/svg">
<rect opacity="0.8" x="0.5" y="0.5" width="54" height="54" stroke="white"/>
<path d="M39.6992 28.5137V34.2441C39.6992 34.4316 39.6289 34.6074 39.4883 34.7715C39.3477 34.9238 39.1719 35 38.9609 35C38.75 35 38.5684 34.9238 38.416 34.7715C38.2637 34.6074 38.1875 34.4316 38.1875 34.2441V28.5137C38.1875 27.1309 37.6953 25.9531 36.7109 24.9805C35.7383 24.0078 34.5664 23.5215 33.1953 23.5215C31.8359 23.5215 30.6758 24.0078 29.7148 24.9805C28.7539 25.9531 28.2734 27.1191 28.2734 28.4785V28.5137V34.2441C28.2734 34.4316 28.1914 34.6074 28.0273 34.7715C27.875 34.9238 27.6934 35 27.4824 35C27.2715 35 27.0957 34.9238 26.9551 34.7715C26.8145 34.6074 26.7441 34.4316 26.7441 34.2441V28.5137V28.4785C26.7441 27.1191 26.2578 25.9531 25.2852 24.9805C24.3125 24.0078 23.1406 23.5215 21.7695 23.5215C20.3984 23.5215 19.2266 24.0078 18.2539 24.9805C17.2812 25.9531 16.7949 27.1309 16.7949 28.5137V34.2441C16.7949 34.4316 16.7129 34.6074 16.5488 34.7715C16.3965 34.9238 16.2207 35 16.0215 35C15.834 35 15.6582 34.9238 15.4941 34.7715C15.3418 34.6074 15.2656 34.4316 15.2656 34.2441V28.5137V22.7656C15.2656 22.5664 15.3418 22.3906 15.4941 22.2383C15.6582 22.0742 15.834 21.9922 16.0215 21.9922C16.2207 21.9922 16.3965 22.0742 16.5488 22.2383C16.7129 22.3906 16.7949 22.5664 16.7949 22.7656V24.3652C18.0957 22.7832 19.748 21.9922 21.752 21.9922C22.959 21.9922 24.0898 22.332 25.1445 23.0117C26.2109 23.6914 27.002 24.5234 27.5176 25.5078C28.0449 24.4648 28.8184 23.6211 29.8379 22.9766C30.8574 22.3203 31.9883 21.9922 33.2305 21.9922C35.0117 21.9922 36.5352 22.6309 37.8008 23.9082C39.0664 25.1738 39.6992 26.709 39.6992 28.5137Z" fill="white"/>
</svg>
